<?xml version="1.0" encoding="UTF-8" standalone="no"?>
<svg
   version="1.1"
   width="453.5433070866142"
   height="453.5433070866142"
   viewBox="0 0 453.5433070866142 453.5433070866142"
   id="svg6"
   sodipodi:docname="SVG_Circle.svg"
   inkscape:version="1.3 (0e150ed, 2023-07-21)"
   xmlns:inkscape="http://www.inkscape.org/namespaces/inkscape"
   xmlns:sodipodi="http://sodipodi.sourceforge.net/DTD/sodipodi-0.dtd"
   xmlns="http://www.w3.org/2000/svg"
   xmlns:svg="http://www.w3.org/2000/svg"
   xmlns:inkstitch="http://inkstitch.org/namespace">
  <sodipodi:namedview
     id="namedview6"
     pagecolor="#ffffff"
     bordercolor="#666666"
     borderopacity="1.0"
     inkscape:showpageshadow="2"
     inkscape:pageopacity="0.0"
     inkscape:pagecheckerboard="0"
     inkscape:deskcolor="#d1d1d1"
     inkscape:zoom="1.6989616"
     inkscape:cx="220.42875"
     inkscape:cy="235.73222"
     inkscape:window-width="1792"
     inkscape:window-height="1016"
     inkscape:window-x="0"
     inkscape:window-y="25"
     inkscape:window-maximized="1"
     inkscape:current-layer="svg6" />
  <metadata
     id="metadata6">
    <inkstitch:min_stitch_len_mm>0</inkstitch:min_stitch_len_mm>
    <inkstitch:collapse_len_mm>3</inkstitch:collapse_len_mm>
    <inkstitch:inkstitch_svg_version>1</inkstitch:inkstitch_svg_version>
  </metadata>
  <defs
     id="defs1" />
  <path
     fill="none"
     stroke="#000000"
     paint-order="fill stroke markers"
     d="m 50,226.77165 c 0,-27.61423 22.385763,-50 50,-50 27.61424,0 50,22.38577 50,50 0,27.61424 -22.38576,50 -50,50 -27.614237,0 -50,-22.38576 -50,-50"
     stroke-opacity="1"
     stroke-linecap="round"
     stroke-miterlimit="10"
     stroke-dasharray="none"
     id="path1"
     inkstitch:trim_after="True" />
  <path
     fill="none"
     stroke="#000000"
     paint-order="fill stroke markers"
     d="m 55,226.77165 c 0,-24.85281 20.147186,-45 45,-45 24.85281,0 45,20.14719 45,45 0,24.85282 -20.14719,45 -45,45 -24.852814,0 -45,-20.14718 -45,-45"
     stroke-opacity="1"
     stroke-linecap="round"
     stroke-miterlimit="10"
     stroke-dasharray="none"
     id="path2"
     inkstitch:trim_after="True" />
  <path
     fill="none"
     stroke="#000000"
     paint-order="fill stroke markers"
     d="m 60,226.77165 c 0,-22.09139 17.90861,-40 40,-40 22.09139,0 40,17.90861 40,40 0,22.09139 -17.90861,40 -40,40 -22.09139,0 -40,-17.90861 -40,-40"
     stroke-opacity="1"
     stroke-linecap="round"
     stroke-miterlimit="10"
     stroke-dasharray="none"
     id="path3"
     inkstitch:trim_after="True" />
  <path
     id="path5"
     d="m 180,226.77165 c 0,-22.09139 17.90861,-40 40,-40 22.09139,0 40,17.90861 40,40 0,22.09139 -17.90861,40 -40,40 -22.09139,0 -40,-17.90861 -40,-40 m -10,0 c 0,-27.61423 22.38576,-50 50,-50 27.61424,0 50,22.38577 50,50 0,27.61424 -22.38576,50 -50,50 -27.61424,0 -50,-22.38576 -50,-50"
     style="fill:none;stroke:#000000;stroke-opacity:1"
     inkstitch:satin_column="True"
     inkstitch:trim_after="True" />
  <path
     fill="#000000"
     stroke="none"
     paint-order="stroke fill markers"
     d="m 290,226.77165 c 0,-27.61423 22.38576,-50 50,-50 27.61424,0 50,22.38577 50,50 0,27.61424 -22.38576,50 -50,50 -27.61424,0 -50,-22.38576 -50,-50"
     fill-opacity="1"
     id="path6"
     inkstitch:trim_after="True" />
</svg>
